<?xml version="1.0" encoding="UTF-8" standalone="no"?>
<svg width="246px" height="276px" viewBox="0 0 246 276" version="1.1" xmlns="http://www.w3.org/2000/svg" xmlns:xlink="http://www.w3.org/1999/xlink" xmlns:sketch="http://www.bohemiancoding.com/sketch/ns">
    <!-- Generator: Sketch 3.1 (8751) - http://www.bohemiancoding.com/sketch -->
    <title>Credibility</title>
    <desc>Created with Sketch.</desc>
    <defs></defs>
    <g id="Home" stroke="none" stroke-width="1" fill="none" fill-rule="evenodd" sketch:type="MSPage">
        <g id="Credibility" sketch:type="MSLayerGroup" transform="translate(4.000000, 4.000000)">
            <path d="M9.702,59.533 L108.858,2.286 C115.06,-1.296 122.702,-1.296 128.905,2.286 L228.061,59.533 C234.263,63.114 238.084,69.732 238.084,76.895 L238.084,191.39 C238.084,198.552 234.263,205.17 228.061,208.751 L128.905,265.999 C122.702,269.58 115.06,269.58 108.858,265.999 L9.702,208.751 C3.499,205.17 -0.322,198.552 -0.322,191.39 L-0.322,76.895 C-0.322,69.732 3.499,63.114 9.702,59.533 L9.702,59.533 Z" id="Fill-2237" fill="#2A8CC0" sketch:type="MSShapeGroup"></path>
            <path d="M9.702,59.533 L108.858,2.286 C115.06,-1.296 122.702,-1.296 128.905,2.286 L228.061,59.533 C234.263,63.114 238.084,69.732 238.084,76.895 L238.084,191.39 C238.084,198.552 234.263,205.17 228.061,208.751 L128.905,265.999 C122.702,269.58 115.06,269.58 108.858,265.999 L9.702,208.751 C3.499,205.17 -0.322,198.552 -0.322,191.39 L-0.322,76.895 C-0.322,69.732 3.499,63.114 9.702,59.533 L9.702,59.533 Z" id="Stroke-2238" stroke="#1D5777" stroke-width="6" stroke-linecap="round" stroke-linejoin="round" sketch:type="MSShapeGroup"></path>
            <path d="M118.881,45.783 C70.082,45.783 30.522,85.343 30.522,134.142 C30.522,182.941 70.082,222.501 118.881,222.501 C167.68,222.501 207.24,182.941 207.24,134.142 C207.24,85.343 167.68,45.783 118.881,45.783 L118.881,45.783 Z M118.881,199.874 C82.579,199.874 53.15,170.445 53.15,134.142 C53.15,97.84 82.579,68.411 118.881,68.411 C155.184,68.411 184.613,97.84 184.613,134.142 C184.613,170.445 155.184,199.874 118.881,199.874 L118.881,199.874 Z" id="Fill-2239" fill="#9ACFE2" sketch:type="MSShapeGroup"></path>
            <path d="M118.881,45.783 C70.082,45.783 30.522,85.343 30.522,134.142 C30.522,182.941 70.082,222.501 118.881,222.501 C167.68,222.501 207.24,182.941 207.24,134.142 C207.24,85.343 167.68,45.783 118.881,45.783 L118.881,45.783 Z M118.881,199.874 C82.579,199.874 53.15,170.445 53.15,134.142 C53.15,97.84 82.579,68.411 118.881,68.411 C155.184,68.411 184.613,97.84 184.613,134.142 C184.613,170.445 155.184,199.874 118.881,199.874 L118.881,199.874 Z" id="Stroke-2240" stroke="#1D5777" stroke-width="6" stroke-linecap="round" stroke-linejoin="round" sketch:type="MSShapeGroup"></path>
            <path d="M118.881,199.874 C82.579,199.874 53.15,170.445 53.15,134.142 C53.15,97.84 82.579,68.411 118.881,68.411 C155.184,68.411 184.613,97.84 184.613,134.142 C184.613,170.445 155.184,199.874 118.881,199.874 L118.881,199.874 Z" id="Fill-2241" fill="#F2F2F1" sketch:type="MSShapeGroup"></path>
            <path d="M118.881,199.874 C82.579,199.874 53.15,170.445 53.15,134.142 C53.15,97.84 82.579,68.411 118.881,68.411 C155.184,68.411 184.613,97.84 184.613,134.142 C184.613,170.445 155.184,199.874 118.881,199.874 L118.881,199.874 Z" id="Stroke-2242" stroke="#1D5777" stroke-width="6" stroke-linecap="round" stroke-linejoin="round" sketch:type="MSShapeGroup"></path>
            <path d="M135.114,117.812 L123.852,117.812 L123.852,102.684 C123.852,99.344 120.533,96.612 117.193,96.612 C114.647,96.612 111.293,98.448 111.293,98.448 L111.219,113.503 L91.754,133.088 L78.708,133.088 L78.708,166.58 L102.005,166.58 C104.773,169.698 108.804,171.672 113.276,171.672 L135.114,171.672 C143.409,171.672 150.195,164.886 150.195,156.591 L150.195,132.893 C150.195,124.598 143.409,117.812 135.114,117.812 L135.114,117.812 Z" id="Fill-2243" fill="#2A8CC0" sketch:type="MSShapeGroup"></path>
            <path d="M135.114,117.812 L123.852,117.812 L123.852,102.684 C123.852,99.344 120.533,96.612 117.193,96.612 C114.647,96.612 111.293,98.448 111.293,98.448 L111.219,113.503 L91.754,133.088 L78.708,133.088 L78.708,166.58 L102.005,166.58 C104.773,169.698 108.804,171.672 113.276,171.672 L135.114,171.672 C143.409,171.672 150.195,164.886 150.195,156.591 L150.195,132.893 C150.195,124.598 143.409,117.812 135.114,117.812 L135.114,117.812 Z" id="Stroke-2244" stroke="#1D5777" stroke-width="5" stroke-linecap="round" stroke-linejoin="round" sketch:type="MSShapeGroup"></path>
            <path d="M113.276,171.672 C104.981,171.672 98.195,164.886 98.195,156.591" id="Fill-2245" fill="#2A8CC0" sketch:type="MSShapeGroup"></path>
            <path d="M113.276,171.672 C104.981,171.672 98.195,164.886 98.195,156.591" id="Stroke-2246" stroke="#1D5777" stroke-width="5" stroke-linecap="round" stroke-linejoin="round" sketch:type="MSShapeGroup"></path>
            <path d="M101.366,151.427 C113.785,151.427 123.852,142.39 123.852,131.241 L123.852,116.734" id="Fill-2247" fill="#2A8CC0" sketch:type="MSShapeGroup"></path>
            <path d="M101.366,151.427 C113.785,151.427 123.852,142.39 123.852,131.241 L123.852,116.734" id="Stroke-2248" stroke="#1D5777" stroke-width="5" stroke-linecap="round" stroke-linejoin="round" sketch:type="MSShapeGroup"></path>
            <path d="M153.037,131.345 L135.62,131.345 C132.31,131.345 129.602,128.637 129.602,125.327 L129.602,124.026 C129.602,120.716 132.31,118.007 135.62,118.007 L153.037,118.007 C156.347,118.007 159.055,120.716 159.055,124.026 L159.055,125.327 C159.055,128.637 156.347,131.345 153.037,131.345 L153.037,131.345 Z" id="Fill-2249" fill="#2A8CC0" sketch:type="MSShapeGroup"></path>
            <path d="M153.037,131.345 L135.62,131.345 C132.31,131.345 129.602,128.637 129.602,125.327 L129.602,124.026 C129.602,120.716 132.31,118.007 135.62,118.007 L153.037,118.007 C156.347,118.007 159.055,120.716 159.055,124.026 L159.055,125.327 C159.055,128.637 156.347,131.345 153.037,131.345 L153.037,131.345 Z" id="Stroke-2250" stroke="#1D5777" stroke-width="5" stroke-linecap="round" stroke-linejoin="round" sketch:type="MSShapeGroup"></path>
            <path d="M153.037,144.683 L135.62,144.683 C132.31,144.683 129.602,141.975 129.602,138.665 L129.602,137.364 C129.602,134.054 132.31,131.345 135.62,131.345 L153.037,131.345 C156.347,131.345 159.055,134.054 159.055,137.364 L159.055,138.665 C159.055,141.975 156.347,144.683 153.037,144.683 L153.037,144.683 Z" id="Fill-2251" fill="#2A8CC0" sketch:type="MSShapeGroup"></path>
            <path d="M153.037,144.683 L135.62,144.683 C132.31,144.683 129.602,141.975 129.602,138.665 L129.602,137.364 C129.602,134.054 132.31,131.345 135.62,131.345 L153.037,131.345 C156.347,131.345 159.055,134.054 159.055,137.364 L159.055,138.665 C159.055,141.975 156.347,144.683 153.037,144.683 L153.037,144.683 Z" id="Stroke-2252" stroke="#1D5777" stroke-width="5" stroke-linecap="round" stroke-linejoin="round" sketch:type="MSShapeGroup"></path>
            <path d="M152.033,158.021 L135.62,158.021 C132.31,158.021 129.602,155.313 129.602,152.002 L129.602,150.702 C129.602,147.392 132.31,144.683 135.62,144.683 L152.033,144.683 C155.343,144.683 158.051,147.392 158.051,150.702 L158.051,152.002 C158.051,155.313 155.343,158.021 152.033,158.021 L152.033,158.021 Z" id="Fill-2253" fill="#2A8CC0" sketch:type="MSShapeGroup"></path>
            <path d="M152.033,158.021 L135.62,158.021 C132.31,158.021 129.602,155.313 129.602,152.002 L129.602,150.702 C129.602,147.392 132.31,144.683 135.62,144.683 L152.033,144.683 C155.343,144.683 158.051,147.392 158.051,150.702 L158.051,152.002 C158.051,155.313 155.343,158.021 152.033,158.021 L152.033,158.021 Z" id="Stroke-2254" stroke="#1D5777" stroke-width="5" stroke-linecap="round" stroke-linejoin="round" sketch:type="MSShapeGroup"></path>
            <path d="M151.196,171.359 L135.453,171.359 C132.143,171.359 129.434,168.651 129.434,165.34 L129.434,164.04 C129.434,160.729 132.143,158.021 135.453,158.021 L151.196,158.021 C154.506,158.021 157.214,160.729 157.214,164.04 L157.214,165.34 C157.214,168.651 154.506,171.359 151.196,171.359 L151.196,171.359 Z" id="Fill-2255" fill="#2A8CC0" sketch:type="MSShapeGroup"></path>
            <path d="M151.196,171.359 L135.453,171.359 C132.143,171.359 129.434,168.651 129.434,165.34 L129.434,164.04 C129.434,160.729 132.143,158.021 135.453,158.021 L151.196,158.021 C154.506,158.021 157.214,160.729 157.214,164.04 L157.214,165.34 C157.214,168.651 154.506,171.359 151.196,171.359 L151.196,171.359 Z" id="Stroke-2256" stroke="#1D5777" stroke-width="5" stroke-linecap="round" stroke-linejoin="round" sketch:type="MSShapeGroup"></path>
        </g>
    </g>
</svg>